<svg version="1.1" id="Layer_1" xmlns="http://www.w3.org/2000/svg" xmlns:xlink="http://www.w3.org/1999/xlink" x="0px" y="0px"
	 width="100%" viewBox="0 0 1280 1280" enable-background="new 0 0 1280 1280" xml:space="preserve">
<path fill="#000000" opacity="1.000000" stroke="none" 
	d="
M1161.000000,1281.000000 
	C774.000000,1281.000000 387.500000,1281.000000 1.000000,1281.000000 
	C1.000000,854.333313 1.000000,427.666656 1.000000,1.000000 
	C427.666656,1.000000 854.333313,1.000000 1281.000000,1.000000 
	C1281.000000,427.666656 1281.000000,854.333313 1281.000000,1281.000000 
	C1241.166626,1281.000000 1201.333374,1281.000000 1161.000000,1281.000000 
M203.902725,569.927307 
	C203.970718,577.605408 204.038712,585.283447 203.473785,593.521362 
	C203.650681,598.681458 203.827560,603.841492 203.918854,609.935303 
	C203.918854,641.650452 203.918854,673.365601 203.918854,706.022034 
	C253.612656,676.619385 302.528320,647.677124 352.401703,618.168213 
	C302.203461,589.554016 253.101105,561.564514 203.958328,533.551941 
	C203.958328,540.777039 203.958328,547.395935 203.274017,554.390625 
	C200.688705,559.392334 201.877060,564.213440 203.902725,569.927307 
M422.792725,674.072266 
	C430.204681,674.072266 437.616638,674.072266 445.386230,674.072266 
	C445.386230,652.664124 445.386230,632.001587 445.386230,610.568726 
	C446.282227,611.758789 446.700623,612.245544 447.043945,612.780457 
	C459.346802,631.949036 471.613098,651.141235 483.995789,670.258057 
	C484.980804,671.778748 486.713470,673.780945 488.186157,673.856689 
	C495.430267,674.228821 502.703949,674.025757 510.110413,674.025757 
	C510.110413,639.039978 510.110413,604.629089 510.110413,570.189453 
	C502.221741,570.189453 494.627136,570.189453 486.410217,570.189453 
	C486.410217,591.061340 486.410217,611.651794 486.410217,633.697998 
	C484.467865,630.999939 483.369446,629.605774 482.410217,628.121643 
	C470.497345,609.689880 458.613312,591.239502 446.684052,572.818420 
	C446.019531,571.792297 445.044952,570.213257 444.179047,570.189392 
	C436.609039,569.981445 429.030914,570.069214 421.358276,570.069214 
	C421.261047,571.560303 421.162018,572.374146 421.161499,573.188049 
	C421.140320,605.831177 421.121979,638.474304 421.146149,671.117432 
	C421.146851,672.032349 421.614410,672.946899 422.792725,674.072266 
M902.942810,606.472229 
	C895.620850,594.971191 888.320007,583.456604 880.934082,571.996765 
	C880.382507,571.140991 879.232788,570.135620 878.342468,570.117554 
	C870.933655,569.966919 863.520386,570.032104 856.203064,570.032104 
	C856.203064,605.103271 856.203064,639.494629 856.203064,673.828979 
	C864.164368,673.828979 871.751648,673.828979 879.954102,673.828979 
	C879.954102,652.785034 879.954102,632.031128 879.954102,610.070496 
	C881.575256,612.592773 882.461548,613.966919 883.343140,615.344116 
	C894.816345,633.268250 906.246521,651.220276 917.822693,669.077698 
	C919.082031,671.020447 921.086365,673.701355 922.912659,673.840454 
	C930.143372,674.391113 937.440796,674.066650 944.842529,674.066650 
	C944.842529,639.185852 944.842529,604.804565 944.842529,570.342529 
	C936.826660,570.342529 929.125305,570.342529 920.967896,570.342529 
	C920.967896,591.358582 920.967896,612.000671 920.967896,632.642761 
	C920.678162,632.728271 920.388428,632.813721 920.098694,632.899231 
	C914.524963,624.283752 908.951172,615.668213 902.942810,606.472229 
M1169.121948,674.058228 
	C1170.262451,672.840271 1171.839355,671.810974 1172.462769,670.369324 
	C1174.438721,665.800049 1175.856567,660.983643 1177.937378,656.468872 
	C1178.576050,655.083069 1180.641968,653.489319 1182.072632,653.471680 
	C1193.219849,653.334900 1204.374878,653.453735 1215.517334,653.809387 
	C1216.880249,653.852844 1218.794678,655.492859 1219.402588,656.860291 
	C1221.422729,661.404114 1222.842773,666.211548 1224.764526,670.804260 
	C1225.303589,672.092773 1226.745850,673.885742 1227.827148,673.923523 
	C1235.526611,674.192932 1243.239868,674.067139 1251.623413,674.067139 
	C1237.360718,638.780823 1223.450439,604.366577 1209.532104,569.932251 
	C1204.189209,569.932251 1199.148071,570.406616 1194.238770,569.804749 
	C1188.846558,569.143738 1186.740234,571.596436 1184.917603,576.167236 
	C1172.366211,607.644775 1159.579590,639.028503 1146.890015,670.451050 
	C1146.491089,671.439087 1146.326172,672.521667 1145.908691,674.103516 
	C1153.697388,674.103516 1160.988403,674.103516 1169.121948,674.058228 
M642.497925,611.510315 
	C636.554504,611.510315 630.611145,611.510315 624.876343,611.510315 
	C624.876343,604.178955 624.876343,597.630005 624.876343,590.696838 
	C636.808838,590.696838 648.244934,590.696838 659.847290,590.696838 
	C659.847290,583.586853 659.847290,576.886719 659.847290,570.311340 
	C639.903015,570.311340 620.334717,570.311340 600.634888,570.311340 
	C600.634888,605.066345 600.634888,639.456909 600.634888,673.796570 
	C620.709778,673.796570 640.429810,673.796570 659.992920,673.796570 
	C659.992920,666.790955 659.992920,660.169006 659.992920,652.901123 
	C647.980957,652.901123 636.265503,652.901123 624.551270,652.901123 
	C624.551270,645.819946 624.551270,639.395691 624.551270,632.164307 
	C636.021851,632.164307 647.218323,632.164307 658.301025,632.164307 
	C658.301025,624.757324 658.301025,618.166809 658.301025,611.506775 
	C653.114685,611.506775 648.304932,611.506775 642.497925,611.510315 
M1018.026550,590.964294 
	C1018.509827,590.574402 1019.409058,590.190002 1019.414307,589.793762 
	C1019.501404,583.221680 1019.476379,576.648193 1019.476379,570.323608 
	C999.445129,570.323608 979.865906,570.323608 960.211304,570.323608 
	C960.211304,605.068909 960.211304,639.352295 960.211304,673.720093 
	C980.143494,673.720093 999.832397,673.720093 1019.450684,673.720093 
	C1019.450684,666.681274 1019.450684,660.087646 1019.450684,652.938416 
	C1007.367615,652.938416 995.648987,652.938416 984.119995,652.938416 
	C984.119995,645.921448 984.119995,639.473572 984.119995,632.607300 
	C995.537720,632.607300 1006.632019,632.607300 1017.955688,632.607300 
	C1017.955688,625.307556 1017.955688,618.439758 1017.955688,611.255249 
	C1006.476501,611.255249 995.382690,611.255249 984.258301,611.255249 
	C984.258301,604.371582 984.258301,597.815735 984.258301,591.002563 
	C995.479492,591.002563 1006.290710,591.002563 1018.026550,590.964294 
M1058.812256,675.768066 
	C1069.387207,676.820068 1079.546875,675.942810 1089.601196,671.738708 
	C1107.325806,664.327454 1114.730103,636.207214 1095.858154,622.287720 
	C1092.134766,619.541443 1088.143066,617.107788 1084.082031,614.882141 
	C1077.685913,611.376770 1070.804810,608.662720 1064.725342,604.699280 
	C1058.566772,600.684265 1059.689209,593.011719 1066.863892,591.179626 
	C1071.543091,589.984802 1076.980713,590.835022 1081.892822,591.757996 
	C1086.169067,592.561584 1090.184937,594.751404 1094.527710,596.409607 
	C1097.739990,590.111572 1100.807373,584.097473 1104.132568,577.578003 
	C1100.354370,575.729248 1096.942261,573.627258 1093.247559,572.330627 
	C1080.750244,567.944763 1068.153931,565.505371 1055.482910,571.928040 
	C1034.285278,582.672913 1031.299927,608.209351 1049.687866,622.203979 
	C1052.052856,624.003906 1054.694946,625.477600 1057.326538,626.881653 
	C1063.479492,630.164734 1069.781372,633.174744 1075.867554,636.573792 
	C1079.037231,638.344116 1081.359985,641.048035 1080.732056,645.116394 
	C1080.110352,649.143799 1077.601929,652.386047 1073.817383,652.734497 
	C1068.363159,653.236694 1062.457886,653.433044 1057.342407,651.841064 
	C1051.201660,649.929932 1045.688599,646.002625 1039.851074,642.920593 
	C1036.755615,648.111450 1033.907715,653.378052 1030.572632,658.315613 
	C1028.153198,661.897583 1029.039429,664.299011 1032.549927,665.737549 
	C1040.951782,669.180481 1049.475220,672.326599 1058.812256,675.768066 
M592.106506,587.547363 
	C592.106506,581.774231 592.106506,576.001099 592.106506,570.310059 
	C567.465149,570.310059 543.263428,570.310059 519.133911,570.310059 
	C519.133911,577.314575 519.133911,583.917542 519.133911,591.109131 
	C527.402222,591.109131 535.443359,591.109131 543.896240,591.109131 
	C543.896240,619.081970 543.896240,646.465332 543.896240,673.747192 
	C552.034973,673.747192 559.729309,673.747192 567.935425,673.747192 
	C567.935425,645.921387 567.935425,618.541321 567.935425,590.959961 
	C575.088684,590.959961 581.718506,591.090698 588.334595,590.846924 
	C589.619324,590.799683 590.850403,589.293274 592.106506,587.547363 
M674.033447,571.808289 
	C674.033447,605.739075 674.033447,639.669922 674.033447,673.746460 
	C694.208496,673.746460 713.890320,673.746460 733.602539,673.746460 
	C733.602539,666.754761 733.602539,660.186157 733.602539,653.029541 
	C721.566101,653.029541 709.846130,653.029541 697.726868,653.029541 
	C697.726868,625.033264 697.726868,597.630554 697.726868,569.494934 
	C689.587585,569.972412 681.898621,570.423462 674.033447,571.808289 
M744.911621,629.500000 
	C744.911621,644.250793 744.911621,659.001587 744.911621,673.776123 
	C765.344238,673.776123 784.901489,673.776123 804.519165,673.776123 
	C804.519165,666.790955 804.519165,660.208252 804.519165,653.058472 
	C792.498352,653.058472 780.778625,653.058472 768.699463,653.058472 
	C768.699463,625.075134 768.699463,597.662476 768.699463,570.269897 
	C760.745300,570.269897 753.172852,570.269897 744.909485,570.269897 
	C744.909485,589.933655 744.909485,609.216858 744.911621,629.500000 
M816.889526,574.094971 
	C816.889526,607.309387 816.889526,640.523804 816.889526,673.753967 
	C825.020691,673.753967 832.709473,673.753967 840.408447,673.753967 
	C840.408447,638.972107 840.408447,604.590088 840.408447,570.015564 
	C833.257568,570.015564 826.448792,570.133423 819.647583,569.957336 
	C816.938171,569.887207 816.580444,571.160278 816.889526,574.094971 
M382.143311,649.500000 
	C382.143311,657.604492 382.143311,665.708984 382.143311,673.816162 
	C390.429016,673.816162 398.154266,673.816162 406.006165,673.816162 
	C406.006165,639.032532 406.006165,604.624268 406.006165,570.289673 
	C398.059509,570.289673 390.327759,570.289673 382.142914,570.289673 
	C382.142914,596.614075 382.142914,622.557068 382.143311,649.500000 
M1142.052856,591.500061 
	C1142.052856,584.404358 1142.052856,577.308655 1142.052856,570.262939 
	C1133.765747,570.262939 1126.036255,570.262939 1118.262695,570.262939 
	C1118.262695,604.997437 1118.262695,639.376221 1118.262695,673.766907 
	C1126.283936,673.766907 1133.992798,673.766907 1142.053467,673.766907 
	C1142.053467,646.418884 1142.053467,619.459412 1142.052856,591.500061 
z"/>
<path fill="#FBFBFB" opacity="1.000000" stroke="none" 
	d="
M203.958328,554.014771 
	C203.958328,547.395935 203.958328,540.777039 203.958328,533.551941 
	C253.101105,561.564514 302.203461,589.554016 352.401703,618.168213 
	C302.528320,647.677124 253.612656,676.619385 203.918854,706.022034 
	C203.918854,673.365601 203.918854,641.650452 204.317917,609.480713 
	C226.642197,621.543579 248.604950,633.996277 270.443146,646.663757 
	C273.044403,648.172607 274.736664,648.020996 277.172546,646.569458 
	C287.309021,640.529114 297.596466,634.742798 307.792725,628.801880 
	C312.276886,626.189209 316.675323,623.429504 321.219147,620.671997 
	C320.524933,619.904663 320.349457,619.586609 320.080139,619.430542 
	C283.120697,598.008545 246.163605,576.582397 209.154465,555.246643 
	C207.676804,554.394775 205.701675,554.405762 203.958328,554.014771 
z"/>
<path fill="#FCFBFC" opacity="1.000000" stroke="none" 
	d="
M422.328491,673.966919 
	C421.614410,672.946899 421.146851,672.032349 421.146149,671.117432 
	C421.121979,638.474304 421.140320,605.831177 421.161499,573.188049 
	C421.162018,572.374146 421.261047,571.560303 421.358276,570.069214 
	C429.030914,570.069214 436.609039,569.981445 444.179047,570.189392 
	C445.044952,570.213257 446.019531,571.792297 446.684052,572.818420 
	C458.613312,591.239502 470.497345,609.689880 482.410217,628.121643 
	C483.369446,629.605774 484.467865,630.999939 486.410217,633.697998 
	C486.410217,611.651794 486.410217,591.061340 486.410217,570.189453 
	C494.627136,570.189453 502.221741,570.189453 510.110413,570.189453 
	C510.110413,604.629089 510.110413,639.039978 510.110413,674.025757 
	C502.703949,674.025757 495.430267,674.228821 488.186157,673.856689 
	C486.713470,673.780945 484.980804,671.778748 483.995789,670.258057 
	C471.613098,651.141235 459.346802,631.949036 447.043945,612.780457 
	C446.700623,612.245544 446.282227,611.758789 445.386230,610.568726 
	C445.386230,632.001587 445.386230,652.664124 445.386230,674.072266 
	C437.616638,674.072266 430.204681,674.072266 422.328491,673.966919 
z"/>
<path fill="#FCFCFD" opacity="1.000000" stroke="none" 
	d="
M903.160156,606.762451 
	C908.951172,615.668213 914.524963,624.283752 920.098694,632.899231 
	C920.388428,632.813721 920.678162,632.728271 920.967896,632.642761 
	C920.967896,612.000671 920.967896,591.358582 920.967896,570.342529 
	C929.125305,570.342529 936.826660,570.342529 944.842529,570.342529 
	C944.842529,604.804565 944.842529,639.185852 944.842529,674.066650 
	C937.440796,674.066650 930.143372,674.391113 922.912659,673.840454 
	C921.086365,673.701355 919.082031,671.020447 917.822693,669.077698 
	C906.246521,651.220276 894.816345,633.268250 883.343140,615.344116 
	C882.461548,613.966919 881.575256,612.592773 879.954102,610.070496 
	C879.954102,632.031128 879.954102,652.785034 879.954102,673.828979 
	C871.751648,673.828979 864.164368,673.828979 856.203064,673.828979 
	C856.203064,639.494629 856.203064,605.103271 856.203064,570.032104 
	C863.520386,570.032104 870.933655,569.966919 878.342468,570.117554 
	C879.232788,570.135620 880.382507,571.140991 880.934082,571.996765 
	C888.320007,583.456604 895.620850,594.971191 903.160156,606.762451 
z"/>
<path fill="#FBFBFB" opacity="1.000000" stroke="none" 
	d="
M1168.700684,674.080872 
	C1160.988403,674.103516 1153.697388,674.103516 1145.908691,674.103516 
	C1146.326172,672.521667 1146.491089,671.439087 1146.890015,670.451050 
	C1159.579590,639.028503 1172.366211,607.644775 1184.917603,576.167236 
	C1186.740234,571.596436 1188.846558,569.143738 1194.238770,569.804749 
	C1199.148071,570.406616 1204.189209,569.932251 1209.532104,569.932251 
	C1223.450439,604.366577 1237.360718,638.780823 1251.623413,674.067139 
	C1243.239868,674.067139 1235.526611,674.192932 1227.827148,673.923523 
	C1226.745850,673.885742 1225.303589,672.092773 1224.764526,670.804260 
	C1222.842773,666.211548 1221.422729,661.404114 1219.402588,656.860291 
	C1218.794678,655.492859 1216.880249,653.852844 1215.517334,653.809387 
	C1204.374878,653.453735 1193.219849,653.334900 1182.072632,653.471680 
	C1180.641968,653.489319 1178.576050,655.083069 1177.937378,656.468872 
	C1175.856567,660.983643 1174.438721,665.800049 1172.462769,670.369324 
	C1171.839355,671.810974 1170.262451,672.840271 1168.700684,674.080872 
M1194.093262,613.567017 
	C1191.788940,619.691101 1189.484619,625.815125 1187.136353,632.056152 
	C1195.015015,632.056152 1202.323486,632.056152 1210.047729,632.056152 
	C1206.190796,622.162659 1202.566406,612.865601 1198.446655,602.297974 
	C1196.729736,606.757385 1195.557617,609.801880 1194.093262,613.567017 
z"/>
<path fill="#FAFAFA" opacity="1.000000" stroke="none" 
	d="
M642.996582,611.508545 
	C648.304932,611.506775 653.114685,611.506775 658.301025,611.506775 
	C658.301025,618.166809 658.301025,624.757324 658.301025,632.164307 
	C647.218323,632.164307 636.021851,632.164307 624.551270,632.164307 
	C624.551270,639.395691 624.551270,645.819946 624.551270,652.901123 
	C636.265503,652.901123 647.980957,652.901123 659.992920,652.901123 
	C659.992920,660.169006 659.992920,666.790955 659.992920,673.796570 
	C640.429810,673.796570 620.709778,673.796570 600.634888,673.796570 
	C600.634888,639.456909 600.634888,605.066345 600.634888,570.311340 
	C620.334717,570.311340 639.903015,570.311340 659.847290,570.311340 
	C659.847290,576.886719 659.847290,583.586853 659.847290,590.696838 
	C648.244934,590.696838 636.808838,590.696838 624.876343,590.696838 
	C624.876343,597.630005 624.876343,604.178955 624.876343,611.510315 
	C630.611145,611.510315 636.554504,611.510315 642.996582,611.508545 
z"/>
<path fill="#FBFBFB" opacity="1.000000" stroke="none" 
	d="
M1017.564270,590.983398 
	C1006.290710,591.002563 995.479492,591.002563 984.258301,591.002563 
	C984.258301,597.815735 984.258301,604.371582 984.258301,611.255249 
	C995.382690,611.255249 1006.476501,611.255249 1017.955688,611.255249 
	C1017.955688,618.439758 1017.955688,625.307556 1017.955688,632.607300 
	C1006.632019,632.607300 995.537720,632.607300 984.119995,632.607300 
	C984.119995,639.473572 984.119995,645.921448 984.119995,652.938416 
	C995.648987,652.938416 1007.367615,652.938416 1019.450684,652.938416 
	C1019.450684,660.087646 1019.450684,666.681274 1019.450684,673.720093 
	C999.832397,673.720093 980.143494,673.720093 960.211304,673.720093 
	C960.211304,639.352295 960.211304,605.068909 960.211304,570.323608 
	C979.865906,570.323608 999.445129,570.323608 1019.476379,570.323608 
	C1019.476379,576.648193 1019.501404,583.221680 1019.414307,589.793762 
	C1019.409058,590.190002 1018.509827,590.574402 1017.564270,590.983398 
z"/>
<path fill="#FBFBFB" opacity="1.000000" stroke="none" 
	d="
M1058.380859,675.680298 
	C1049.475220,672.326599 1040.951782,669.180481 1032.549927,665.737549 
	C1029.039429,664.299011 1028.153198,661.897583 1030.572632,658.315613 
	C1033.907715,653.378052 1036.755615,648.111450 1039.851074,642.920593 
	C1045.688599,646.002625 1051.201660,649.929932 1057.342407,651.841064 
	C1062.457886,653.433044 1068.363159,653.236694 1073.817383,652.734497 
	C1077.601929,652.386047 1080.110352,649.143799 1080.732056,645.116394 
	C1081.359985,641.048035 1079.037231,638.344116 1075.867554,636.573792 
	C1069.781372,633.174744 1063.479492,630.164734 1057.326538,626.881653 
	C1054.694946,625.477600 1052.052856,624.003906 1049.687866,622.203979 
	C1031.299927,608.209351 1034.285278,582.672913 1055.482910,571.928040 
	C1068.153931,565.505371 1080.750244,567.944763 1093.247559,572.330627 
	C1096.942261,573.627258 1100.354370,575.729248 1104.132568,577.578003 
	C1100.807373,584.097473 1097.739990,590.111572 1094.527710,596.409607 
	C1090.184937,594.751404 1086.169067,592.561584 1081.892822,591.757996 
	C1076.980713,590.835022 1071.543091,589.984802 1066.863892,591.179626 
	C1059.689209,593.011719 1058.566772,600.684265 1064.725342,604.699280 
	C1070.804810,608.662720 1077.685913,611.376770 1084.082031,614.882141 
	C1088.143066,617.107788 1092.134766,619.541443 1095.858154,622.287720 
	C1114.730103,636.207214 1107.325806,664.327454 1089.601196,671.738708 
	C1079.546875,675.942810 1069.387207,676.820068 1058.380859,675.680298 
z"/>
<path fill="#FBFBFB" opacity="1.000000" stroke="none" 
	d="
M592.106323,588.003662 
	C590.850403,589.293274 589.619324,590.799683 588.334595,590.846924 
	C581.718506,591.090698 575.088684,590.959961 567.935425,590.959961 
	C567.935425,618.541321 567.935425,645.921387 567.935425,673.747192 
	C559.729309,673.747192 552.034973,673.747192 543.896240,673.747192 
	C543.896240,646.465332 543.896240,619.081970 543.896240,591.109131 
	C535.443359,591.109131 527.402222,591.109131 519.133911,591.109131 
	C519.133911,583.917542 519.133911,577.314575 519.133911,570.310059 
	C543.263428,570.310059 567.465149,570.310059 592.106506,570.310059 
	C592.106506,576.001099 592.106506,581.774231 592.106323,588.003662 
z"/>
<path fill="#060606" opacity="1.000000" stroke="none" 
	d="
M203.616180,554.202698 
	C205.701675,554.405762 207.676804,554.394775 209.154465,555.246643 
	C246.163605,576.582397 283.120697,598.008545 320.080139,619.430542 
	C320.349457,619.586609 320.524933,619.904663 321.219147,620.671997 
	C316.675323,623.429504 312.276886,626.189209 307.792725,628.801880 
	C297.596466,634.742798 287.309021,640.529114 277.172546,646.569458 
	C274.736664,648.020996 273.044403,648.172607 270.443146,646.663757 
	C248.604950,633.996277 226.642197,621.543579 204.360718,609.013855 
	C203.827560,603.841492 203.650681,598.681458 204.175720,593.244019 
	C206.549957,593.545898 208.362488,593.879456 209.873352,594.741638 
	C230.497192,606.510986 251.104782,618.309631 271.639465,630.233398 
	C274.214417,631.728577 276.226929,632.141479 278.903320,630.469360 
	C283.930328,627.328735 289.179779,624.544128 294.861755,621.312866 
	C293.098480,620.125000 291.809753,619.137756 290.414490,618.335938 
	C280.196136,612.464722 269.959106,606.625977 259.722961,600.785828 
	C241.141373,590.184326 222.556305,579.589050 203.972687,568.991150 
	C201.877060,564.213440 200.688705,559.392334 203.616180,554.202698 
z"/>
<path fill="#FBFBFB" opacity="1.000000" stroke="none" 
	d="
M674.121582,571.341431 
	C681.898621,570.423462 689.587585,569.972412 697.726868,569.494934 
	C697.726868,597.630554 697.726868,625.033264 697.726868,653.029541 
	C709.846130,653.029541 721.566101,653.029541 733.602539,653.029541 
	C733.602539,660.186157 733.602539,666.754761 733.602539,673.746460 
	C713.890320,673.746460 694.208496,673.746460 674.033447,673.746460 
	C674.033447,639.669922 674.033447,605.739075 674.121582,571.341431 
z"/>
<path fill="#FAFAFA" opacity="1.000000" stroke="none" 
	d="
M744.910522,629.000000 
	C744.909485,609.216858 744.909485,589.933655 744.909485,570.269897 
	C753.172852,570.269897 760.745300,570.269897 768.699463,570.269897 
	C768.699463,597.662476 768.699463,625.075134 768.699463,653.058472 
	C780.778625,653.058472 792.498352,653.058472 804.519165,653.058472 
	C804.519165,660.208252 804.519165,666.790955 804.519165,673.776123 
	C784.901489,673.776123 765.344238,673.776123 744.911621,673.776123 
	C744.911621,659.001587 744.911621,644.250793 744.910522,629.000000 
z"/>
<path fill="#FAFAFA" opacity="1.000000" stroke="none" 
	d="
M816.874512,573.687256 
	C816.580444,571.160278 816.938171,569.887207 819.647583,569.957336 
	C826.448792,570.133423 833.257568,570.015564 840.408447,570.015564 
	C840.408447,604.590088 840.408447,638.972107 840.408447,673.753967 
	C832.709473,673.753967 825.020691,673.753967 816.889526,673.753967 
	C816.889526,640.523804 816.889526,607.309387 816.874512,573.687256 
z"/>
<path fill="#FAFAFA" opacity="1.000000" stroke="none" 
	d="
M382.143127,649.000000 
	C382.142914,622.557068 382.142914,596.614075 382.142914,570.289673 
	C390.327759,570.289673 398.059509,570.289673 406.006165,570.289673 
	C406.006165,604.624268 406.006165,639.032532 406.006165,673.816162 
	C398.154266,673.816162 390.429016,673.816162 382.143311,673.816162 
	C382.143311,665.708984 382.143311,657.604492 382.143127,649.000000 
z"/>
<path fill="#FCFCFD" opacity="1.000000" stroke="none" 
	d="
M1142.053223,592.000000 
	C1142.053467,619.459412 1142.053467,646.418884 1142.053467,673.766907 
	C1133.992798,673.766907 1126.283936,673.766907 1118.262695,673.766907 
	C1118.262695,639.376221 1118.262695,604.997437 1118.262695,570.262939 
	C1126.036255,570.262939 1133.765747,570.262939 1142.052856,570.262939 
	C1142.052856,577.308655 1142.052856,584.404358 1142.053223,592.000000 
z"/>
<path fill="#FAFAFA" opacity="1.000000" stroke="none" 
	d="
M203.937714,569.459229 
	C222.556305,579.589050 241.141373,590.184326 259.722961,600.785828 
	C269.959106,606.625977 280.196136,612.464722 290.414490,618.335938 
	C291.809753,619.137756 293.098480,620.125000 294.861755,621.312866 
	C289.179779,624.544128 283.930328,627.328735 278.903320,630.469360 
	C276.226929,632.141479 274.214417,631.728577 271.639465,630.233398 
	C251.104782,618.309631 230.497192,606.510986 209.873352,594.741638 
	C208.362488,593.879456 206.549957,593.545898 204.492188,592.964111 
	C204.038712,585.283447 203.970718,577.605408 203.937714,569.459229 
z"/>
<path fill="#060606" opacity="1.000000" stroke="none" 
	d="
M1194.239258,613.206665 
	C1195.557617,609.801880 1196.729736,606.757385 1198.446655,602.297974 
	C1202.566406,612.865601 1206.190796,622.162659 1210.047729,632.056152 
	C1202.323486,632.056152 1195.015015,632.056152 1187.136353,632.056152 
	C1189.484619,625.815125 1191.788940,619.691101 1194.239258,613.206665 
z"/>
</svg>